<?xml version="1.0" encoding="UTF-8"?><svg id="_レイヤー_2" xmlns="http://www.w3.org/2000/svg" width="61.58" height="200.55" viewBox="0 0 61.58 200.55"><defs><style>.cls-1{fill:#008ca3;}.cls-2{fill:#00112a;}.cls-3{fill:#fff;}.cls-4{fill:#7f3909;}.cls-5{fill:#662323;}.cls-6{fill:#8e3c38;}.cls-7{fill:#d5e8ef;}.cls-8{fill:#13c1d3;}.cls-9{fill:#351500;}.cls-10{fill:#5b2602;}.cls-11{fill:#110600;opacity:.15;}.cls-12{fill:#b8d1d8;opacity:.51;}</style></defs><g id="_レイヤー_1-2"><g><path class="cls-2" d="M55.31,174.82c.18-2.5,.37-5.3,.58-8.35l5.69,5.69c-.46-8.29-3.11-9.95-5.34-9.82,.76-7.96,3.06-34.37,3.02-62.74,.13-4.79,.21-9.43,.24-13.82,.06-9.04-.93-17.76-2.95-26.09-4.39-24.37-13.62-44.17-15.8-48.62-.25-.51-.79-.8-1.36-.71-.56,.08-1,.52-1.08,1.08l-1.33,9.67c-.27-.25-.57-.46-.92-.6-.38-.16-.79-.23-1.17-.23-.4,0-.81,.07-1.2,.23-.3,.12-.57,.29-.81,.5l-1.31-9.57c-.09-.56-.52-1-1.08-1.08-.56-.09-1.1,.2-1.35,.71-2.13,4.34-10.96,23.28-15.47,46.81-2.33,8.88-3.48,18.2-3.41,27.9,.04,5.96,.19,12.38,.4,19,.25,26.84,2.41,51.02,2.92,57.07,.01,.18,.02,.37,.04,.55-2.31-.4-5.34,.84-5.84,9.76l6.08-6.08c.22,3.21,.42,6.15,.6,8.77-2.29-.31-5.18,1.08-5.67,9.78l5.94-5.94c.4,5.55,.67,8.9,.68,9.04,.09,1.12,.79,2.1,1.82,2.55,2.32,1.01,4.7,1.81,7.13,2.41,.03,1.78,.5,4.29,1.83,7.85v-7.44c2.85,.57,5.75,.86,8.69,.86,3.14,0,6.24-.33,9.26-.98v7.56c1.37-3.65,1.83-6.2,1.83-7.99,2.23-.58,4.42-1.33,6.56-2.27,1.03-.45,1.73-1.43,1.82-2.55,.01-.14,.26-3.34,.65-8.65l5.56,5.56c-.46-8.18-3.05-9.9-5.25-9.82ZM44.37,30.84l1.84-2.87c.46,1.19,.93,2.44,1.41,3.72l-1.44,2.1c-.61-1.05-1.22-2.04-1.81-2.95Zm-.77-1.18c-.75-1.13-1.47-2.15-2.14-3.06l2.12-5.07c.6,1.4,1.23,2.91,1.88,4.54l-1.86,3.59Zm-17.37-.1l-1.81-3.49c.65-1.63,1.28-3.14,1.88-4.54l2.08,4.97c-.67,.91-1.39,1.93-2.15,3.07Zm-.77,1.19c-.59,.92-1.2,1.91-1.81,2.95l-1.38-2.01c.47-1.29,.94-2.53,1.41-3.72l1.79,2.78Zm23.54,8.26c-.68-1.37-1.37-2.66-2.06-3.88l1.34-1.61c1.47,4.12,2.94,8.66,4.29,13.52-1.07-2.73-2.26-5.41-3.57-8.03Zm-9.17-25.81c.68,1.44,1.67,3.54,2.83,6.2l-1.95,6.21c-1.07-1.4-1.96-2.47-2.6-3.2l1.72-9.2Zm-9.78,0l1.7,9.09c-.63,.71-1.53,1.78-2.62,3.2l-1.91-6.1c1.17-2.66,2.15-4.76,2.83-6.2Zm-8.45,20.33l1.27,1.53c-.7,1.24-1.4,2.56-2.11,3.96-1.16,2.33-2.22,4.7-3.2,7.11,1.27-4.51,2.65-8.74,4.03-12.6Z"/><g><path class="cls-7" d="M48.69,75.41c.28-39.25-20.26-61.04-21.55-62.37v-.06s-.01,.01-.03,.03c-.02-.02-.03-.03-.03-.03v.06c-1.29,1.32-21.83,23.12-21.55,62.37,.29,40.52,5.14,101.72,5.14,101.72h0c10.48,4.57,22.39,4.57,32.87,0h0s4.85-61.2,5.14-101.72Z"/><path class="cls-3" d="M27.22,31.83C6.4,44.66,8.36,79.14,8.36,79.14l18.86-3.09,18.77,1.56s.65-33.76-18.77-45.79Z"/><g><g><path class="cls-1" d="M32.13,72.72l-8.49,12.29c.36-.04,.73-.08,1.1-.12l8.5-12c-.36-.06-.73-.12-1.11-.17Z"/><path class="cls-1" d="M8.79,79.14v11.31s4.61-3.53,12.35-5.04l6.2-12.96c-5.59,.12-12,1.81-18.55,6.7Z"/><path class="cls-1" d="M34.55,73.14l-8.59,11.65c5.55-.34,12.2,.52,19.59,3.92v-11.09s-4.34-3.07-11.01-4.48Z"/><path class="cls-8" d="M27.34,72.44l-6.2,12.96c.8-.16,1.63-.29,2.49-.4l8.49-12.29c-1.51-.2-3.11-.31-4.79-.27Z"/><path class="cls-8" d="M33.24,72.89l-8.5,12c.4-.04,.81-.07,1.22-.1l8.59-11.65c-.43-.09-.86-.17-1.31-.25Z"/></g><g><polygon class="cls-3" points="19.08 87.13 16.21 73.08 19.68 72.26 20.22 86.7 19.08 87.13"/><polygon class="cls-3" points="35.19 87.13 38.05 73.08 34.58 72.26 34.05 86.7 35.19 87.13"/></g></g><g><g><path class="cls-6" d="M13.98,70.87c-.36,0-.65-.29-.65-.65,0-13.33,3.27-22.85,3.3-22.95,.12-.34,.49-.52,.83-.4,.34,.12,.52,.49,.4,.83-.02,.06-1.74,3.81-2.68,9.87-.55,3.52-.54,7.83-.54,12.65,0,.36-.29,.65-.65,.65Z"/><path class="cls-5" d="M13.83,70.22c0-13.33,3.27-22.85,3.3-22.95,.06-.18,.2-.32,.37-.39-.01,0-.02-.01-.03-.02-.34-.12-.71,.06-.83,.4-.03,.09-3.3,9.61-3.3,22.95,0,.36,.29,.65,.65,.65,.09,0,.17-.02,.25-.05-.24-.1-.4-.33-.4-.6Z"/></g><g><path class="cls-6" d="M40.27,70.87c.36,0,.65-.29,.65-.65,0-13.33-3.27-22.85-3.3-22.95-.12-.34-.49-.52-.83-.4-.34,.12-.52,.49-.4,.83,.02,.06,1.74,3.81,2.68,9.87,.55,3.52,.54,7.83,.54,12.65,0,.36,.29,.65,.65,.65Z"/><path class="cls-5" d="M40.42,70.22c0-13.33-3.27-22.85-3.3-22.95-.06-.18-.2-.32-.37-.39,.01,0,.02-.01,.03-.02,.34-.12,.71,.06,.83,.4,.03,.09,3.3,9.61,3.3,22.95,0,.36-.29,.65-.65,.65-.09,0-.17-.02-.25-.05,.24-.1,.4-.33,.4-.6Z"/></g></g><g><path class="cls-3" d="M18.42,178.11s-4.13,1.09,0,12.07v-12.07Z"/><path class="cls-3" d="M36.37,178.11s4.13,1.09,0,12.07v-12.07Z"/></g><g><g><path class="cls-3" d="M9.55,165.74s-7.71-6.17-8.54,8.54l8.54-8.54Z"/><path class="cls-3" d="M8.54,153.27s-7.71-6.17-8.54,8.54l8.54-8.54Z"/></g><g><path class="cls-3" d="M44.26,165.74s7.71-6.17,8.54,8.54l-8.54-8.54Z"/><path class="cls-3" d="M45.27,153.27s7.71-6.17,8.54,8.54l-8.54-8.54Z"/></g></g><g><polygon class="cls-7" points="20.5 53.41 16.93 52.49 17.6 50.77 20.85 52.49 20.5 53.41"/><polygon class="cls-7" points="19.13 61.84 15.46 61.58 15.55 63.43 19.18 62.82 19.13 61.84"/><polygon class="cls-7" points="19.71 58.25 16.04 57.99 16.39 56.17 19.9 57.29 19.71 58.25"/></g><g><polygon class="cls-7" points="33.67 53.41 37.24 52.49 36.57 50.77 33.32 52.49 33.67 53.41"/><polygon class="cls-7" points="35.04 61.84 38.71 61.58 38.62 63.43 34.99 62.82 35.04 61.84"/><polygon class="cls-7" points="34.46 58.25 38.13 57.99 37.78 56.17 34.27 57.29 34.46 58.25"/></g><g><path class="cls-3" d="M5.89,152.89c.36,2.06-4.62-44.31-2.51-85.14C5.05,35.5,18.65,6.26,21.36,.72c.25-.51,.79-.79,1.35-.71,.56,.08,1,.52,1.08,1.08l1.66,12.11-1.08,.89-2.1-11.27C18.56,10.7,5.69,38.41,4.15,68.26c-2.1,40.69,3.07,81.97,3.11,82.39l-1.37,2.24Z"/><polygon class="cls-3" points="19.11 7.95 22.04 17.3 21.39 18.01 18.05 10.03 19.11 7.95"/><polygon class="cls-3" points="16.02 14.5 20.53 23.2 20.01 24.01 15.33 16.73 16.02 14.5"/><polygon class="cls-3" points="13.86 20.41 19.41 28.49 19 29.36 13.46 22.71 13.86 20.41"/></g><g><path class="cls-3" d="M48.23,154.43c.04-.42,4.84-45.85,2.73-86.68C49.29,35.5,35.69,6.26,32.98,.72c-.25-.51-.79-.79-1.35-.71-.56,.08-1,.52-1.08,1.08l-1.66,12.11,1.08,.89,2.1-11.27c3.72,7.87,16.58,35.58,18.13,65.43,2.1,40.69-3.07,81.97-3.11,82.39l1.15,3.78Z"/><polygon class="cls-3" points="35.23 7.95 32.3 17.3 32.95 18.01 36.29 10.03 35.23 7.95"/><polygon class="cls-3" points="38.32 14.5 33.8 23.2 34.33 24.01 39 16.73 38.32 14.5"/><polygon class="cls-3" points="40.48 20.41 34.93 28.49 35.34 29.36 40.88 22.71 40.48 20.41"/></g><g><g><path class="cls-10" d="M12.26,160.17l-2.27-33.28c-.79-11.56,7.15-21.43,17.22-21.43h0c10.15,0,18.12,10.03,17.21,21.67l-2.59,33.04h0c-9.62,2.49-19.61,2.52-29.24,.08l-.33-.08Z"/><g><path class="cls-9" d="M13.82,112.82l3.38,48.39c.85,.15,1.71,.28,2.56,.38l-1.03-53.57c-1.89,1.23-3.55,2.87-4.91,4.79Z"/><path class="cls-9" d="M35.71,108.01l-1.03,53.55c.86-.11,1.71-.25,2.57-.4l3.38-48.38c-1.36-1.92-3.03-3.54-4.92-4.77Z"/><path class="cls-9" d="M27.24,105.45h0c-1.08,0-2.13,.12-3.15,.33l1.09,56.23c.9,.03,1.8,.03,2.69,.02l2.02-56.36c-.86-.15-1.75-.24-2.65-.24Z"/></g><path class="cls-4" d="M18.73,108.03s-1.6,42.68,1.03,53.57l-1.03-53.57Z"/><path class="cls-4" d="M29.89,105.69l-2.02,56.36s-1.94-15.55,2.02-56.36Z"/><path class="cls-4" d="M40.62,112.78l-3.38,48.38s-1.69-3.74,3.38-48.38Z"/></g><path class="cls-11" d="M12.3,160.18l.69-22.39c.34-10.95,8.3-19.63,17.64-19.7,.05,0,.1,0,.14,0,.21,0,.42,0,.64,.01,.23,0,.47,.03,.7,.05,.04,0,.09,0,.13,0h0s0,0,0,0c0,0,0,0,0,0h0c.28,.03,.55,.06,.83,.11,.08,.01,.16,.03,.24,.04,.2,.04,.4,.07,.6,.12,.08,.02,.17,.04,.25,.05,.23,.05,.47,.11,.7,.18h0c2.05,.58,3.92,1.57,5.56,2.89h0c.05,.03,.1,.08,.16,.12,.02,.01,.03,.03,.05,.04,.22,.18,.44,.37,.65,.56,.01,0,.02,.02,.03,.03,1.21,1.11,2.26,2.41,3.16,3.85,.19-5.04-1.29-9.72-3.86-13.36v-.02c-1.12-1.59-2.46-2.97-3.96-4.09-.01,0-.02-.02-.03-.03-.23-.17-.46-.34-.7-.5-.02-.01-.04-.02-.05-.04-.06-.04-.11-.08-.17-.12h0c-1.77-1.14-3.73-1.95-5.82-2.32h0c-.24-.04-.47-.08-.71-.11-.09-.01-.17-.02-.26-.03-.2-.02-.4-.04-.61-.06-.08,0-.16-.01-.24-.02-.28-.02-.55-.03-.83-.03h-.01s-.08,0-.13,0c-.24,0-.47,0-.7,.02-.21,.01-.43,.03-.64,.05-.05,0-.09,0-.14,.01-9.29,.98-16.36,10.41-15.61,21.34l2.27,33.28h.04Z"/></g><g><path class="cls-1" d="M13.14,163.31c-.57-.16-.86-.26-.86-.26l.55,5.53c2.31,.92,4.62,1.54,6.87,1.93l6.52-5.54c-6.51-.06-11.22-1.15-13.07-1.67Z"/><path class="cls-1" d="M28.97,164.93l-4.26,6.12c.52,.02,1.03,.03,1.53,.04l4.1-6.22c-.46,.03-.92,.05-1.36,.07Z"/><path class="cls-1" d="M41.94,163.05c-3.35,.86-6.54,1.37-9.49,1.65l-1.75,6.19c6.25-.6,10.58-2.31,10.58-2.31l.66-5.53Z"/><path class="cls-8" d="M26.21,164.97l-6.52,5.54c1.71,.3,3.39,.47,5.01,.54l4.26-6.12c-.95,.04-1.87,.05-2.75,.04Z"/><path class="cls-8" d="M30.33,164.86l-4.1,6.22c1.57,0,3.06-.07,4.46-.2l1.75-6.19c-.72,.07-1.42,.12-2.11,.16Z"/></g><path class="cls-12" d="M9.95,117.78s-3.49-36.88,28.89-26.68c0,0-8.03-9.74-22.63-2.38-14.6,7.36-6.27,29.07-6.27,29.07Z"/><path class="cls-12" d="M10.04,57.21s2.79-19.56,20.09-35.46l-2.98-5.88S9.19,38.8,10.04,57.21Z"/><path class="cls-3" d="M41.23,28.64c-4.92-9.85-10.1-15.78-11.56-17.36-.33-.49-.8-.89-1.38-1.12-.38-.15-.79-.23-1.17-.23-.4,0-.81,.07-1.2,.23-.57,.24-1.04,.63-1.37,1.12-1.46,1.58-6.63,7.51-11.56,17.36C5.9,42.83,2.36,58.57,2.48,75.44c.29,40.17,5.1,101.33,5.15,101.94,.09,1.12,.79,2.1,1.82,2.55,5.6,2.44,11.54,3.68,17.66,3.68s12.05-1.24,17.65-3.68c1.03-.45,1.73-1.43,1.82-2.55,.05-.61,4.87-61.77,5.15-101.94,.12-16.87-3.42-32.61-10.51-46.79Zm-14.12-10.99c5.37,6.69,18.76,26.53,18.54,57.73-.03,3.91-.1,8.01-.2,12.25-11.73-5.28-21.49-4.43-27.75-2.7-3.9,1.08-6.91,2.6-8.89,3.79-.12-4.62-.2-9.09-.23-13.33-.22-31.21,13.17-51.05,18.54-57.73Zm13.55,157.37c-4.33,1.65-8.88,2.49-13.55,2.49s-9.21-.84-13.55-2.49c-.6-7.88-2.94-39.41-4.2-69.87-.4-9.73,7.1-18.05,16.83-18.46,.14,0,.29-.01,.43-.02,10.27-.3,18.65,8.19,18.22,18.46-1.25,30.46-3.59,62-4.19,69.88Z"/></g></g></g></svg>