<?xml version="1.0" encoding="UTF-8"?><svg id="_レイヤー_2" xmlns="http://www.w3.org/2000/svg" width="383.06" height="210.95" viewBox="0 0 383.06 210.95"><defs><style>.cls-1{fill:#fff;}</style></defs><g id="_レイヤー_1-2"><g><path class="cls-1" d="M0,0H12.61l4.54,24.04L23.79,0h12.56l6.66,24.01L47.55,0h12.54l-9.47,42.95h-13.01l-7.53-27.04-7.5,27.04H9.56L0,0Z"/><path class="cls-1" d="M96.62,30.35h-23.91c.21,1.91,.73,3.34,1.55,4.28,1.15,1.35,2.66,2.02,4.51,2.02,1.17,0,2.29-.29,3.34-.88,.64-.37,1.34-1.03,2.08-1.96l11.75,1.08c-1.8,3.12-3.97,5.37-6.5,6.72-2.54,1.36-6.18,2.04-10.93,2.04-4.12,0-7.36-.58-9.73-1.74-2.36-1.16-4.32-3.01-5.87-5.54-1.55-2.53-2.33-5.5-2.33-8.92,0-4.86,1.56-8.8,4.67-11.81,3.12-3.01,7.42-4.51,12.91-4.51,4.45,0,7.97,.67,10.55,2.02s4.54,3.3,5.89,5.86c1.35,2.56,2.02,5.89,2.02,9.99v1.35Zm-12.13-5.71c-.23-2.3-.85-3.96-1.86-4.95-1.01-1-2.33-1.49-3.97-1.49-1.89,0-3.41,.75-4.54,2.26-.72,.94-1.18,2.33-1.38,4.19h11.75Z"/><path class="cls-1" d="M102.51,0h11.95V42.95h-11.95V0Z"/><path class="cls-1" d="M145.28,30.76l11.34,1.29c-.63,2.36-1.65,4.41-3.08,6.14-1.43,1.73-3.25,3.07-5.46,4.03-2.22,.96-5.03,1.44-8.45,1.44s-6.05-.31-8.25-.92-4.09-1.61-5.67-2.99-2.82-2.99-3.72-4.84c-.9-1.85-1.35-4.31-1.35-7.38s.55-5.86,1.64-7.99c.8-1.56,1.89-2.96,3.28-4.2,1.39-1.24,2.81-2.16,4.28-2.77,2.32-.96,5.3-1.43,8.94-1.43,5.08,0,8.95,.91,11.62,2.72s4.54,4.47,5.61,7.97l-11.22,1.49c-.35-1.33-.99-2.33-1.92-3-.93-.67-2.17-1.01-3.74-1.01-1.97,0-3.57,.71-4.79,2.12-1.22,1.41-1.83,3.55-1.83,6.42,0,2.55,.6,4.49,1.82,5.82,1.21,1.33,2.75,1.99,4.63,1.99,1.56,0,2.88-.4,3.94-1.2,1.06-.8,1.86-2.03,2.39-3.69Z"/><path class="cls-1" d="M160.63,27.48c0-4.75,1.6-8.66,4.8-11.73,3.2-3.08,7.53-4.61,12.98-4.61,6.23,0,10.94,1.81,14.12,5.42,2.56,2.91,3.84,6.49,3.84,10.75,0,4.79-1.59,8.71-4.76,11.76-3.17,3.06-7.56,4.58-13.17,4.58-5,0-9.04-1.27-12.13-3.81-3.79-3.14-5.68-7.27-5.68-12.36Zm11.95-.03c0,2.77,.56,4.82,1.68,6.15,1.12,1.33,2.53,1.99,4.23,1.99s3.13-.65,4.23-1.96c1.1-1.31,1.66-3.41,1.66-6.3,0-2.7-.56-4.7-1.67-6.02s-2.49-1.98-4.13-1.98c-1.74,0-3.17,.67-4.31,2.01-1.13,1.34-1.7,3.37-1.7,6.11Z"/><path class="cls-1" d="M202.21,11.84h11.13v4.54c1.6-1.89,3.22-3.24,4.86-4.04,1.63-.8,3.6-1.2,5.91-1.2,2.48,0,4.45,.44,5.9,1.32,1.45,.88,2.63,2.19,3.55,3.93,1.87-2.03,3.58-3.41,5.12-4.15s3.44-1.1,5.71-1.1c3.34,0,5.94,.99,7.81,2.97,1.87,1.98,2.81,5.08,2.81,9.3v19.54h-11.95V25.22c0-1.41-.27-2.45-.82-3.13-.8-1.07-1.79-1.61-2.98-1.61-1.4,0-2.53,.51-3.39,1.52-.86,1.02-1.28,2.65-1.28,4.89v16.05h-11.95V25.81c0-1.37-.08-2.29-.24-2.78-.25-.78-.7-1.41-1.32-1.89-.63-.48-1.36-.72-2.2-.72-1.37,0-2.5,.52-3.38,1.55-.88,1.04-1.32,2.73-1.32,5.1v15.88h-11.95V11.84Z"/><path class="cls-1" d="M296.66,30.35h-23.91c.21,1.91,.73,3.34,1.55,4.28,1.15,1.35,2.66,2.02,4.51,2.02,1.17,0,2.29-.29,3.34-.88,.64-.37,1.34-1.03,2.08-1.96l11.75,1.08c-1.8,3.12-3.97,5.37-6.5,6.72-2.54,1.36-6.18,2.04-10.93,2.04-4.12,0-7.36-.58-9.73-1.74-2.36-1.16-4.32-3.01-5.87-5.54-1.55-2.53-2.33-5.5-2.33-8.92,0-4.86,1.56-8.8,4.67-11.81,3.12-3.01,7.42-4.51,12.91-4.51,4.45,0,7.97,.67,10.55,2.02s4.54,3.3,5.89,5.86c1.35,2.56,2.02,5.89,2.02,9.99v1.35Zm-12.13-5.71c-.23-2.3-.85-3.96-1.86-4.95-1.01-1-2.33-1.49-3.97-1.49-1.89,0-3.41,.75-4.54,2.26-.72,.94-1.18,2.33-1.38,4.19h11.75Z"/><path class="cls-1" d="M336.53,0V11.84h6.56v8.73h-6.56v11.02c0,1.33,.13,2.2,.38,2.63,.39,.66,1.07,.99,2.05,.99,.88,0,2.11-.25,3.69-.76l.88,8.23c-2.95,.64-5.7,.97-8.26,.97-2.97,0-5.16-.38-6.56-1.14s-2.45-1.92-3.12-3.47-1.01-4.06-1.01-7.53v-10.94h-4.39V11.84h4.39V6.12l11.95-6.12Z"/><path class="cls-1" d="M347.31,27.48c0-4.75,1.6-8.66,4.8-11.73,3.2-3.08,7.53-4.61,12.98-4.61,6.23,0,10.94,1.81,14.12,5.42,2.56,2.91,3.84,6.49,3.84,10.75,0,4.79-1.59,8.71-4.76,11.76-3.17,3.06-7.56,4.58-13.17,4.58-5,0-9.04-1.27-12.13-3.81-3.79-3.14-5.68-7.27-5.68-12.36Zm11.95-.03c0,2.77,.56,4.82,1.68,6.15,1.12,1.33,2.53,1.99,4.23,1.99s3.13-.65,4.23-1.96c1.1-1.31,1.66-3.41,1.66-6.3,0-2.7-.56-4.7-1.67-6.02s-2.49-1.98-4.13-1.98c-1.74,0-3.17,.67-4.31,2.01-1.13,1.34-1.7,3.37-1.7,6.11Z"/><path class="cls-1" d="M4.28,84H21.73l6.73,26.13,6.68-26.13h17.44v42.95h-10.87v-32.75l-8.38,32.75h-9.84l-8.36-32.75v32.75H4.28v-42.95Z"/><path class="cls-1" d="M59.38,105.5c0-7.01,1.95-12.47,5.86-16.38s9.35-5.86,16.32-5.86,12.66,1.92,16.52,5.76,5.8,9.21,5.8,16.13c0,5.02-.85,9.14-2.53,12.35-1.69,3.21-4.13,5.71-7.32,7.5s-7.17,2.68-11.94,2.68-8.85-.77-12.03-2.31c-3.17-1.54-5.75-3.98-7.72-7.32-1.97-3.34-2.96-7.52-2.96-12.54Zm13.27,.06c0,4.34,.81,7.45,2.42,9.35,1.61,1.89,3.8,2.84,6.58,2.84s5.06-.93,6.62-2.78c1.56-1.86,2.34-5.19,2.34-9.99,0-4.04-.82-7-2.45-8.86-1.63-1.86-3.84-2.8-6.64-2.8s-4.82,.95-6.45,2.84c-1.62,1.89-2.43,5.03-2.43,9.4Z"/><path class="cls-1" d="M111.21,126.95v-42.95h22.12c4.1,0,7.24,.35,9.4,1.05s3.92,2.01,5.24,3.91c1.33,1.9,1.99,4.22,1.99,6.96,0,2.38-.51,4.44-1.52,6.17s-2.41,3.13-4.19,4.2c-1.13,.68-2.69,1.25-4.66,1.7,1.58,.53,2.73,1.06,3.45,1.58,.49,.35,1.2,1.1,2.12,2.26,.93,1.15,1.55,2.04,1.86,2.67l6.43,12.45h-15l-7.09-13.12c-.9-1.7-1.7-2.8-2.4-3.31-.96-.66-2.04-1-3.25-1h-1.17v17.43h-13.33Zm13.33-25.55h5.6c.6,0,1.78-.19,3.52-.59,.88-.18,1.6-.62,2.15-1.35,.56-.72,.83-1.55,.83-2.49,0-1.39-.44-2.45-1.32-3.19-.88-.74-2.53-1.11-4.95-1.11h-5.83v8.73Z"/><path class="cls-1" d="M155.01,105.5c0-7.01,1.95-12.47,5.86-16.38s9.35-5.86,16.32-5.86,12.66,1.92,16.52,5.76,5.8,9.21,5.8,16.13c0,5.02-.85,9.14-2.53,12.35-1.69,3.21-4.13,5.71-7.32,7.5s-7.17,2.68-11.94,2.68-8.85-.77-12.03-2.31c-3.17-1.54-5.75-3.98-7.72-7.32-1.97-3.34-2.96-7.52-2.96-12.54Zm13.27,.06c0,4.34,.81,7.45,2.42,9.35,1.61,1.89,3.8,2.84,6.58,2.84s5.06-.93,6.62-2.78c1.56-1.86,2.34-5.19,2.34-9.99,0-4.04-.82-7-2.45-8.86-1.63-1.86-3.84-2.8-6.64-2.8s-4.82,.95-6.45,2.84c-1.62,1.89-2.43,5.03-2.43,9.4Z"/><path class="cls-1" d="M205.58,84h37.56v8.58l-24.11,25.14h24.99v9.23h-40.75v-8.91l23.86-24.87h-21.54v-9.17Z"/><path class="cls-1" d="M276.4,119.86h-15.07l-2.09,7.09h-13.55l16.14-42.95h14.48l16.14,42.95h-13.9l-2.15-7.09Zm-2.75-9.29l-4.74-15.44-4.69,15.44h9.43Z"/><path class="cls-1" d="M296.72,84h13.27v16.23l13.9-16.23h17.65l-15.67,16.21,16.38,26.74h-16.34l-9.06-17.66-6.86,7.18v10.48h-13.27v-42.95Z"/><path class="cls-1" d="M347.17,84h13.3v42.95h-13.3v-42.95Z"/><path class="cls-1" d="M.09,168H14.83l8.65,14.49,8.67-14.49h14.66l-16.7,24.96v17.99h-13.3v-17.99L.09,168Z"/><path class="cls-1" d="M71.84,203.86h-15.07l-2.09,7.09h-13.55l16.14-42.95h14.48l16.14,42.95h-13.9l-2.15-7.09Zm-2.75-9.29l-4.74-15.44-4.69,15.44h9.43Z"/><path class="cls-1" d="M92.2,168h12.39l16.17,23.76v-23.76h12.51v42.95h-12.51l-16.08-23.58v23.58h-12.48v-42.95Z"/><path class="cls-1" d="M141.94,168h17.45l6.73,26.13,6.68-26.13h17.44v42.95h-10.87v-32.75l-8.38,32.75h-9.84l-8.36-32.75v32.75h-10.87v-42.95Z"/><path class="cls-1" d="M225.13,203.86h-15.07l-2.09,7.09h-13.55l16.14-42.95h14.48l16.14,42.95h-13.9l-2.15-7.09Zm-2.75-9.29l-4.74-15.44-4.69,15.44h9.43Z"/><path class="cls-1" d="M245.57,210.95v-42.95h22.12c4.1,0,7.24,.35,9.4,1.05s3.92,2.01,5.24,3.91c1.33,1.9,1.99,4.22,1.99,6.96,0,2.38-.51,4.44-1.52,6.17s-2.41,3.13-4.19,4.2c-1.13,.68-2.69,1.25-4.66,1.7,1.58,.53,2.73,1.06,3.45,1.58,.49,.35,1.2,1.1,2.12,2.26,.93,1.15,1.55,2.04,1.86,2.67l6.43,12.45h-15l-7.09-13.12c-.9-1.7-1.7-2.8-2.4-3.31-.96-.66-2.04-1-3.25-1h-1.17v17.43h-13.33Zm13.33-25.55h5.6c.6,0,1.78-.19,3.52-.59,.88-.18,1.6-.62,2.15-1.35,.56-.72,.83-1.55,.83-2.49,0-1.39-.44-2.45-1.32-3.19-.88-.74-2.53-1.11-4.95-1.11h-5.83v8.73Z"/><path class="cls-1" d="M291.3,168h12.74v9.79l-2.46,19.66h-7.88l-2.4-19.66v-9.79Zm.44,32.43h11.89v10.52h-11.89v-10.52Z"/></g></g></svg>