<?xml version="1.0" encoding="UTF-8"?><svg id="_レイヤー_2" xmlns="http://www.w3.org/2000/svg" width="107.41" height="79.71" viewBox="0 0 107.41 79.71"><defs><style>.cls-1{fill:#009fe8;}.cls-2{fill:#e3007f;}</style></defs><g id="_レイヤー_1-2"><g><path class="cls-1" d="M.09,79.71v-24.19H11.75c6.95,0,10.31,3.19,10.31,8.16s-3.09,8.5-10.04,8.5h-4v7.52H.09Zm11.22-13.17c1.85,0,3.19-.74,3.19-2.82,0-2.25-2.55-2.55-4.23-2.55h-2.25v5.37h3.29Z"/><path class="cls-1" d="M33.59,54.95c6.21,0,10.04,3.66,10.04,9.14,0,6.45-4.37,9.47-10.01,9.47s-10.01-3.09-10.01-9.1,4.03-9.51,9.98-9.51Zm-2.99,9.14c0,3.32,1.24,4.77,3.02,4.77,1.88,0,3.02-1.44,3.02-4.77,0-2.59-1.14-4.54-2.96-4.44-2.38,0-3.09,2.45-3.09,4.44Z"/><path class="cls-1" d="M64.43,66.34h.07l2.72-10.88h6.62l-5.61,17.6h-6.82l-2.72-10.31h-.07l-2.45,10.31h-6.82l-5.81-17.6h6.82l2.69,10.88h.07l2.72-10.88h5.91l2.69,10.88Z"/><path class="cls-1" d="M80.56,65.84c0,2.08,1.61,3.46,3.46,3.46,1.11,0,2.12-.5,2.62-1.55h6.68c-1.21,4.37-5.64,5.81-9.74,5.81-5.64,0-10.01-3.22-10.01-9.14s4.33-9.47,9.98-9.47c6.52,0,10.45,4.5,10.35,10.88h-13.34Zm6.35-3.56c0-1.61-1.44-3.06-3.09-3.06-2.08,0-3.26,1.17-3.26,3.06h6.35Z"/><path class="cls-1" d="M94.68,55.46h6.35v3.56h.07c.97-2.75,2.69-4.06,5.41-4.06,.3,0,.6,.07,.91,.1v6.99c-.47-.07-.97-.2-1.44-.2-2.86,0-4.3,1.34-4.3,5.14v6.08h-6.99v-17.6Z"/><path class="cls-2" d="M91.53,51.47c8.67,0,15.7-7.03,15.7-15.7s-7.03-15.7-15.7-15.7-15.7,7.03-15.7,15.7,7.03,15.7,15.7,15.7Z"/><path class="cls-1" d="M91.53,10.07C55.06,10.07,22.33,26.1,0,51.49H37.2c6.54-23.87,28.38-41.42,54.33-41.42Z"/><g><path class="cls-2" d="M2.32,33.32c.7-.13,1.41,.1,2.14,.7l-.61,.56c-.43-.32-.83-.46-1.22-.43-.39,.03-.76,.21-1.1,.52-.41,.38-.59,.88-.53,1.5,.06,.62,.42,1.3,1.08,2.02,.58,.63,1.16,1.03,1.75,1.21,.59,.18,1.15,.03,1.67-.45,.4-.37,.6-.81,.61-1.33,0-.52-.27-1.09-.83-1.71l-1.42,1.3-.54-.59,1.99-1.82,2.59,2.83-.39,.36-.77-.54c.04,.45,.03,.8-.03,1.05-.1,.42-.36,.82-.77,1.19-.53,.48-1.17,.7-1.92,.64-.88-.13-1.73-.64-2.54-1.52-.81-.88-1.25-1.77-1.33-2.67-.07-.85,.2-1.56,.81-2.12,.42-.38,.87-.62,1.35-.71Z"/><path class="cls-2" d="M4.2,31.4l.57-.49,4.66,5.44-.57,.49-4.66-5.44Z"/><path class="cls-2" d="M9.8,29.96c.59,.1,1.16,.48,1.71,1.16,.53,.65,.84,1.3,.91,1.95,.08,.65-.17,1.2-.74,1.66-.47,.39-1,.5-1.59,.35-.58-.15-1.14-.54-1.65-1.18-.55-.68-.85-1.34-.88-1.98-.03-.64,.2-1.17,.69-1.57,.45-.36,.96-.49,1.55-.4Zm1.83,2.99c-.14-.46-.37-.89-.71-1.31-.31-.38-.61-.64-.9-.8-.47-.24-.9-.2-1.3,.13-.35,.29-.48,.65-.38,1.1,.1,.45,.33,.9,.7,1.34,.35,.43,.72,.72,1.12,.88,.39,.16,.76,.09,1.11-.19,.38-.31,.5-.7,.37-1.15Z"/><path class="cls-2" d="M9.51,27l.58-.44,1.57,2.07c-.02-.3,.02-.57,.13-.81,.1-.24,.26-.45,.48-.61,.45-.34,.94-.43,1.49-.29,.55,.15,1.08,.57,1.61,1.26,.5,.66,.77,1.31,.83,1.95,.05,.64-.16,1.15-.65,1.52-.27,.21-.56,.3-.86,.29-.18,0-.41-.06-.69-.17l.4,.53-.55,.42-4.33-5.73Zm5.92,3.06c-.07-.42-.28-.88-.66-1.37-.33-.44-.69-.74-1.07-.91-.38-.17-.73-.13-1.04,.11-.27,.21-.42,.51-.45,.9-.03,.39,.16,.86,.57,1.4,.3,.39,.58,.68,.85,.86,.5,.34,.97,.35,1.41,.02,.33-.25,.46-.58,.39-1Z"/><path class="cls-2" d="M17.81,25.92c.13-.12,.17-.26,.14-.41-.02-.08-.07-.19-.15-.31-.17-.25-.37-.37-.6-.38-.23,0-.48,.09-.76,.28-.32,.23-.48,.49-.47,.78,0,.17,.07,.37,.2,.6l-.58,.4c-.36-.54-.47-1.01-.33-1.41,.14-.4,.39-.74,.76-1,.43-.3,.85-.45,1.25-.45,.4,0,.74,.21,1.03,.61l1.72,2.47c.05,.07,.11,.13,.17,.15,.06,.03,.13,.01,.21-.05,.03-.02,.06-.04,.09-.07,.03-.03,.06-.06,.1-.09l.37,.53c-.07,.1-.13,.17-.18,.21-.04,.04-.11,.1-.2,.16-.21,.15-.43,.17-.65,.06-.12-.06-.24-.17-.38-.32,0,.28-.06,.57-.19,.88-.14,.31-.35,.56-.63,.76-.34,.24-.7,.31-1.09,.22-.38-.09-.7-.32-.96-.68-.28-.4-.39-.78-.33-1.15,.06-.37,.24-.7,.55-.99l.88-.83Zm.06,2.85c.21,.03,.41-.02,.59-.14,.22-.15,.39-.36,.51-.62,.21-.43,.16-.87-.15-1.31l-.4-.58c-.04,.11-.1,.22-.19,.34-.09,.12-.19,.23-.29,.32l-.33,.32c-.2,.19-.33,.36-.39,.52-.1,.26-.06,.52,.13,.8,.14,.21,.32,.33,.54,.35Z"/><path class="cls-2" d="M17.6,21.23l.63-.42,3.95,5.97-.63,.41-3.95-5.97Z"/><path class="cls-2" d="M21.48,18.7l1.03-.6,4.59,4.33-1.56-6.11,1.02-.6,3.63,6.17-.68,.4-2.14-3.64c-.07-.13-.19-.34-.36-.63-.17-.29-.35-.61-.54-.94l1.55,6.1-.71,.42-4.59-4.31,.11,.19c.09,.15,.23,.38,.42,.69,.19,.31,.33,.53,.41,.68l2.14,3.64-.69,.4-3.63-6.17Z"/><path class="cls-2" d="M31.79,17.47c.14-.1,.2-.23,.19-.39,0-.08-.05-.19-.11-.32-.14-.27-.32-.42-.55-.45-.23-.03-.49,.03-.79,.19-.35,.18-.53,.42-.56,.72-.02,.16,.03,.37,.13,.62l-.62,.33c-.29-.58-.34-1.06-.15-1.44,.19-.38,.48-.68,.88-.89,.47-.25,.9-.34,1.3-.29,.4,.05,.71,.3,.94,.74l1.41,2.66c.04,.08,.09,.14,.14,.17,.05,.03,.13,.03,.22-.02,.03-.02,.06-.04,.1-.06,.04-.02,.07-.05,.11-.08l.3,.57c-.09,.09-.15,.15-.2,.19-.05,.04-.12,.08-.22,.13-.23,.12-.44,.11-.65-.02-.11-.07-.22-.19-.34-.37-.03,.28-.13,.56-.3,.85-.17,.29-.41,.51-.72,.67-.37,.19-.74,.22-1.11,.09-.37-.14-.66-.4-.86-.79-.23-.43-.29-.82-.18-1.18,.11-.36,.33-.66,.67-.91l.98-.72Zm-.29,2.84c.21,.06,.41,.03,.6-.07,.23-.12,.43-.31,.58-.55,.26-.4,.26-.84,.01-1.32l-.33-.62c-.05,.1-.13,.21-.23,.32-.11,.11-.22,.2-.33,.28l-.37,.27c-.22,.16-.37,.32-.45,.46-.13,.24-.12,.51,.03,.81,.12,.22,.28,.36,.49,.42Z"/><path class="cls-2" d="M33.02,14.53l.64-.31,.4,.81c-.02-.18,0-.44,.1-.77,.09-.33,.27-.56,.54-.69,.01,0,.03-.02,.06-.03,.03-.01,.09-.03,.16-.06l.41,.83s-.08,.02-.12,.04c-.04,.01-.07,.03-.11,.05-.34,.17-.54,.42-.6,.77-.06,.35,0,.68,.16,1.02l1.32,2.7-.68,.33-2.3-4.69Z"/><path class="cls-2" d="M34.82,11.5l.69-.32,.42,.9-.69,.32-.42-.9Zm.83,1.78l.69-.32,2.2,4.71-.69,.32-2.2-4.71Z"/><path class="cls-2" d="M37.43,12.42l.65-.29,.3,.68c.07-.36,.19-.66,.35-.87,.16-.22,.38-.38,.64-.5,.58-.25,1.08-.19,1.49,.2,.22,.21,.44,.56,.65,1.04l1.34,3.07-.7,.31-1.32-3.02c-.13-.29-.27-.51-.42-.66-.25-.24-.54-.3-.86-.16-.16,.07-.29,.15-.38,.23-.16,.15-.27,.35-.33,.61-.05,.21-.05,.4-.01,.59,.04,.18,.13,.43,.26,.74l1.1,2.51-.69,.3-2.09-4.79Z"/><path class="cls-2" d="M44.56,9.6c.34,.05,.63,.18,.88,.38,.24,.19,.44,.44,.62,.75,.13,.21,.29,.56,.48,1.05l-3.03,1.19c.21,.49,.46,.85,.77,1.07,.3,.23,.65,.26,1.04,.11,.36-.14,.6-.4,.7-.76,.06-.21,.07-.44,.03-.67l.69-.27c.05,.19,.07,.41,.05,.67-.02,.26-.06,.48-.13,.67-.12,.33-.31,.59-.59,.8-.15,.11-.33,.21-.54,.3-.52,.2-1.04,.15-1.57-.14-.53-.3-.95-.84-1.27-1.64-.31-.78-.38-1.48-.21-2.11,.17-.63,.54-1.06,1.13-1.29,.29-.12,.61-.15,.95-.09Zm1,1.81c-.17-.34-.34-.6-.53-.77-.34-.32-.74-.39-1.18-.21-.32,.12-.53,.37-.64,.72-.11,.35-.09,.74,.06,1.17l2.29-.9Z"/><path class="cls-2" d="M50.29,10.45c.14,.38,.32,.67,.53,.87,.4,.37,.92,.45,1.56,.24,.29-.09,.53-.23,.73-.4,.39-.34,.51-.76,.34-1.25-.12-.37-.3-.6-.55-.7-.25-.09-.59-.12-1.05-.1l-.83,.04c-.55,.03-.95,0-1.21-.1-.45-.17-.77-.53-.95-1.1-.2-.61-.19-1.17,.04-1.68,.23-.51,.66-.87,1.31-1.08,.6-.19,1.16-.19,1.69,.02,.53,.21,.92,.69,1.17,1.45l-.74,.24c-.16-.35-.33-.6-.52-.76-.35-.28-.8-.33-1.35-.15-.45,.15-.73,.37-.85,.66-.12,.29-.13,.59-.03,.89,.11,.33,.3,.54,.59,.62,.18,.05,.57,.06,1.15,.03l.86-.04c.42-.02,.76,.03,1.03,.14,.46,.2,.79,.6,.99,1.21,.25,.75,.19,1.37-.16,1.84-.35,.47-.83,.81-1.44,1.01-.71,.23-1.33,.2-1.87-.11-.54-.3-.93-.82-1.16-1.55l.74-.24Z"/><path class="cls-2" d="M55.09,5.89l.94,3.34c.07,.26,.17,.46,.28,.6,.21,.27,.49,.35,.83,.25,.49-.14,.75-.5,.78-1.07,.02-.31-.04-.71-.18-1.2l-.7-2.47,.72-.2,1.42,5.03-.68,.19-.2-.74c-.04,.22-.11,.41-.21,.58-.2,.34-.49,.56-.87,.67-.6,.17-1.08,.05-1.43-.37-.19-.22-.35-.55-.47-.98l-.96-3.42,.74-.21Z"/><path class="cls-2" d="M59.02,4.82l.71-.17,.16,.67c.09-.27,.21-.48,.35-.65,.2-.25,.47-.41,.8-.5,.49-.12,.97,0,1.42,.36,.45,.36,.78,.94,.98,1.76,.27,1.11,.21,1.96-.17,2.55-.24,.38-.57,.62-.99,.72-.33,.08-.63,.06-.89-.05-.15-.06-.34-.19-.56-.38l.63,2.59-.73,.18-1.72-7.07Zm3.72,3.31c.15-.39,.14-.91-.02-1.58-.1-.4-.23-.74-.4-1.01-.33-.51-.74-.71-1.25-.58-.51,.12-.78,.5-.83,1.14-.02,.34,.02,.75,.14,1.24,.1,.39,.23,.71,.39,.96,.32,.48,.73,.66,1.23,.53,.34-.08,.59-.32,.73-.71Z"/><path class="cls-2" d="M63.77,3.69l.72-.15,.14,.68c.1-.26,.23-.48,.37-.64,.21-.24,.48-.4,.82-.47,.5-.1,.97,.03,1.4,.41,.44,.37,.74,.97,.91,1.8,.23,1.12,.14,1.96-.27,2.54-.26,.37-.59,.59-1.02,.68-.33,.07-.63,.04-.89-.08-.15-.07-.33-.2-.54-.4l.53,2.61-.74,.15-1.46-7.13Zm3.59,3.44c.16-.38,.17-.91,.04-1.58-.08-.41-.21-.75-.37-1.02-.31-.52-.71-.73-1.22-.63-.51,.1-.8,.47-.87,1.11-.04,.34,0,.75,.09,1.24,.08,.39,.2,.72,.36,.98,.3,.49,.7,.68,1.21,.58,.35-.07,.6-.3,.76-.68Z"/><path class="cls-2" d="M71.9,2.68c.46,.38,.77,1,.91,1.85,.14,.83,.08,1.54-.17,2.14-.25,.6-.74,.96-1.47,1.08-.6,.1-1.12-.06-1.56-.48-.44-.42-.72-1.03-.85-1.84-.14-.87-.07-1.59,.22-2.16,.29-.58,.75-.91,1.38-1.02,.57-.09,1.08,.05,1.54,.42Zm.11,3.5c.11-.46,.12-.96,.03-1.49-.08-.48-.21-.86-.39-1.14-.29-.44-.68-.62-1.19-.53-.45,.07-.74,.33-.88,.77-.14,.44-.16,.94-.06,1.51,.09,.55,.27,.99,.53,1.32,.27,.33,.62,.46,1.06,.39,.49-.08,.78-.35,.89-.82Z"/><path class="cls-2" d="M73.45,1.93l.71-.1,.12,.89c.03-.18,.15-.41,.34-.69,.19-.28,.44-.44,.73-.48,.01,0,.04,0,.07,0,.03,0,.09,0,.17,0l.12,.92s-.09,0-.12,0c-.04,0-.08,0-.12,.01-.38,.05-.64,.23-.81,.54-.16,.31-.22,.65-.17,1.01l.4,2.98-.75,.1-.7-5.17Z"/><path class="cls-2" d="M76.3,.09l.76-.09,.17,1.45,.71-.08,.08,.71-.71,.08,.39,3.39c.02,.18,.09,.3,.2,.34,.06,.03,.16,.04,.3,.02,.04,0,.07-.01,.12-.02,.04,0,.09-.02,.14-.03l.08,.69c-.08,.04-.17,.07-.26,.09-.09,.02-.19,.04-.3,.05-.35,.04-.6-.04-.75-.23-.15-.19-.24-.46-.28-.79l-.4-3.43-.6,.07-.08-.71,.6-.07-.17-1.45Z"/></g><path class="cls-1" d="M70.51,35.77c0-11.24,8.83-20.43,19.94-20.99-22.86,.47-42.07,15.79-48.38,36.71h35.51c-4.33-3.85-7.07-9.46-7.07-15.72Z"/></g></g></svg>